<svg xmlns="http://www.w3.org/2000/svg" viewBox="0 0 1180 760" width="1180" height="760" font-family="DejaVu Sans, Segoe UI, Apple SD Gothic Neo, Malgun Gothic, sans-serif"><rect x="0" y="0" width="1180" height="760" fill="#F9FAFB"/><text x="590.0" y="36" font-family="DejaVu Sans, Segoe UI, Apple SD Gothic Neo, Malgun Gothic, sans-serif" font-size="22" fill="#111827" font-weight="bold" text-anchor="middle">ESCM²-WC (DR): Win Tower를 이중 활용하는 3-tower 전체공간(entire-space) 모델</text><text x="590.0" y="61" font-family="DejaVu Sans, Segoe UI, Apple SD Gothic Neo, Malgun Gothic, sans-serif" font-size="13" fill="#374151" font-weight="normal" text-anchor="middle">공유 임베딩 → Win / CTR / Imputation 타워 · 이중 강건(DR) 클릭 손실 + ESMM 제약</text><rect x="35" y="154" width="150" height="196" rx="10" ry="10" fill="#0F172A" stroke="none" stroke-width="0" opacity="0.1"/><rect x="32" y="150" width="150" height="196" rx="10" ry="10" fill="#FFFFFF" stroke="#111827" stroke-width="1.4" opacity="1.0"/><text x="107.0" y="172" font-family="DejaVu Sans, Segoe UI, Apple SD Gothic Neo, Malgun Gothic, sans-serif" font-size="11.5" fill="#111827" font-weight="bold" text-anchor="middle">입력 피처 (30개)</text><rect x="45" y="183" width="124" height="17" rx="6" ry="6" fill="#F1F5F9" stroke="#94A3B8" stroke-width="1.0" opacity="1.0"/><text x="107.0" y="194.755" font-family="DejaVu Sans, Segoe UI, Apple SD Gothic Neo, Malgun Gothic, sans-serif" font-size="9.3" fill="#111827" font-weight="normal" text-anchor="middle">시간</text><rect x="45" y="204" width="124" height="17" rx="6" ry="6" fill="#F1F5F9" stroke="#94A3B8" stroke-width="1.0" opacity="1.0"/><text x="107.0" y="215.755" font-family="DejaVu Sans, Segoe UI, Apple SD Gothic Neo, Malgun Gothic, sans-serif" font-size="9.3" fill="#111827" font-weight="normal" text-anchor="middle">지역 · region/city</text><rect x="45" y="225" width="124" height="17" rx="6" ry="6" fill="#F1F5F9" stroke="#94A3B8" stroke-width="1.0" opacity="1.0"/><text x="107.0" y="236.755" font-family="DejaVu Sans, Segoe UI, Apple SD Gothic Neo, Malgun Gothic, sans-serif" font-size="9.3" fill="#111827" font-weight="normal" text-anchor="middle">슬롯 / 광고면</text><rect x="45" y="246" width="124" height="17" rx="6" ry="6" fill="#F1F5F9" stroke="#94A3B8" stroke-width="1.0" opacity="1.0"/><text x="107.0" y="257.755" font-family="DejaVu Sans, Segoe UI, Apple SD Gothic Neo, Malgun Gothic, sans-serif" font-size="9.3" fill="#111827" font-weight="normal" text-anchor="middle">도메인 / 크리에이티브</text><rect x="45" y="267" width="124" height="17" rx="6" ry="6" fill="#F1F5F9" stroke="#94A3B8" stroke-width="1.0" opacity="1.0"/><text x="107.0" y="278.755" font-family="DejaVu Sans, Segoe UI, Apple SD Gothic Neo, Malgun Gothic, sans-serif" font-size="9.3" fill="#111827" font-weight="normal" text-anchor="middle">광고주</text><rect x="45" y="288" width="124" height="17" rx="6" ry="6" fill="#F1F5F9" stroke="#94A3B8" stroke-width="1.0" opacity="1.0"/><text x="107.0" y="299.755" font-family="DejaVu Sans, Segoe UI, Apple SD Gothic Neo, Malgun Gothic, sans-serif" font-size="9.3" fill="#111827" font-weight="normal" text-anchor="middle">가격 / 거래소</text><text x="107.0" y="324" font-family="DejaVu Sans, Segoe UI, Apple SD Gothic Neo, Malgun Gothic, sans-serif" font-size="8.2" fill="#374151" font-weight="normal" text-anchor="middle">범주형 → Embed(32)</text><text x="107.0" y="334" font-family="DejaVu Sans, Segoe UI, Apple SD Gothic Neo, Malgun Gothic, sans-serif" font-size="8.2" fill="#374151" font-weight="normal" text-anchor="middle">수치형 → Linear(1→32)</text><line x1="182" y1="248.0" x2="186.0" y2="248.0" stroke="#111827" stroke-width="2.0" stroke-linecap="round"/><polygon points="197.0,248.0 186.0,253.5 186.0,242.5" fill="#111827"/><rect x="203" y="162" width="168" height="180" rx="10" ry="10" fill="#0F172A" stroke="none" stroke-width="0" opacity="0.1"/><rect x="200" y="158" width="168" height="180" rx="10" ry="10" fill="#EEF2FF" stroke="#4F46E5" stroke-width="1.6" opacity="1.0"/><text x="284.0" y="180" font-family="DejaVu Sans, Segoe UI, Apple SD Gothic Neo, Malgun Gothic, sans-serif" font-size="11.5" fill="#4F46E5" font-weight="bold" text-anchor="middle">공유 표현(representation)</text><rect x="220" y="192" width="6" height="26" rx="1" ry="1" fill="#4F46E5" stroke="none" stroke-width="0" opacity="0.25"/><rect x="228" y="192" width="6" height="26" rx="1" ry="1" fill="#4F46E5" stroke="none" stroke-width="0" opacity="0.37"/><rect x="236" y="192" width="6" height="26" rx="1" ry="1" fill="#4F46E5" stroke="none" stroke-width="0" opacity="0.49"/><rect x="244" y="192" width="6" height="26" rx="1" ry="1" fill="#4F46E5" stroke="none" stroke-width="0" opacity="0.25"/><rect x="252" y="192" width="6" height="26" rx="1" ry="1" fill="#4F46E5" stroke="none" stroke-width="0" opacity="0.37"/><rect x="260" y="192" width="6" height="26" rx="1" ry="1" fill="#4F46E5" stroke="none" stroke-width="0" opacity="0.49"/><text x="300.0" y="208" font-family="DejaVu Sans, Segoe UI, Apple SD Gothic Neo, Malgun Gothic, sans-serif" font-size="9" fill="#111827" font-weight="normal" text-anchor="start">피처별</text><text x="284.0" y="234" font-family="DejaVu Sans, Segoe UI, Apple SD Gothic Neo, Malgun Gothic, sans-serif" font-size="9" fill="#374151" font-weight="normal" text-anchor="middle">Embed 30×16 = [B, 480]</text><rect x="214" y="246" width="140" height="22" rx="6" ry="6" fill="#FFFFFF" stroke="#4F46E5" stroke-width="1.0" opacity="1.0"/><text x="284.0" y="259.94" font-family="DejaVu Sans, Segoe UI, Apple SD Gothic Neo, Malgun Gothic, sans-serif" font-size="8.4" fill="#374151" font-weight="normal" text-anchor="middle">17 categorical (embed) + 13 numerical (proj)</text><text x="284.0" y="286" font-family="DejaVu Sans, Segoe UI, Apple SD Gothic Neo, Malgun Gothic, sans-serif" font-size="10" fill="#4F46E5" font-weight="bold" text-anchor="middle">⊕ concat</text><rect x="236" y="296" width="96" height="26" rx="8" ry="8" fill="#FFFFFF" stroke="#4F46E5" stroke-width="1.4" opacity="1.0"/><text x="284.0" y="313" font-family="DejaVu Sans, Segoe UI, Apple SD Gothic Neo, Malgun Gothic, sans-serif" font-size="12" fill="#111827" font-weight="bold" text-anchor="middle">z ∈ ℝ⁴⁸⁰</text><text x="620" y="96" font-family="DejaVu Sans, Segoe UI, Apple SD Gothic Neo, Malgun Gothic, sans-serif" font-size="9.3" fill="#374151" font-weight="normal" text-anchor="middle">각 타워:  Dense → ReLU → Dropout 0.3        σ = 시그모이드  ·  lin = 항등</text><text x="410" y="139" font-family="DejaVu Sans, Segoe UI, Apple SD Gothic Neo, Malgun Gothic, sans-serif" font-size="10.2" fill="#0D9488" font-weight="bold" text-anchor="start">Win 타워  ·  성향점수  P(win|x)</text><line x1="368" y1="248" x2="402.8" y2="167.3" stroke="#0D9488" stroke-width="1.5" stroke-linecap="round"/><polygon points="406.0,160.0 406.5,168.9 399.2,165.8" fill="#0D9488"/><rect x="410" y="145" width="46" height="30" rx="5" ry="5" fill="#E2E8F0" stroke="#94A3B8" stroke-width="1.1" opacity="1.0"/><text x="433" y="164" font-family="DejaVu Sans, Segoe UI, Apple SD Gothic Neo, Malgun Gothic, sans-serif" font-size="10.5" fill="#374151" font-weight="normal" text-anchor="middle">480</text><line x1="456" y1="160" x2="459.0" y2="160.0" stroke="#0D9488" stroke-width="1.2" stroke-linecap="round"/><polygon points="464.0,160.0 459.0,162.5 459.0,157.5" fill="#0D9488"/><rect x="464" y="145" width="46" height="30" rx="5" ry="5" fill="#F8FAFC" stroke="#0D9488" stroke-width="1.1" opacity="1.0"/><text x="487" y="164" font-family="DejaVu Sans, Segoe UI, Apple SD Gothic Neo, Malgun Gothic, sans-serif" font-size="10.5" fill="#111827" font-weight="bold" text-anchor="middle">64</text><line x1="510" y1="160" x2="513.0" y2="160.0" stroke="#0D9488" stroke-width="1.2" stroke-linecap="round"/><polygon points="518.0,160.0 513.0,162.5 513.0,157.5" fill="#0D9488"/><rect x="518" y="145" width="46" height="30" rx="5" ry="5" fill="#F8FAFC" stroke="#0D9488" stroke-width="1.1" opacity="1.0"/><text x="541" y="164" font-family="DejaVu Sans, Segoe UI, Apple SD Gothic Neo, Malgun Gothic, sans-serif" font-size="10.5" fill="#111827" font-weight="bold" text-anchor="middle">32</text><line x1="564" y1="160" x2="567.0" y2="160.0" stroke="#0D9488" stroke-width="1.2" stroke-linecap="round"/><polygon points="572.0,160.0 567.0,162.5 567.0,157.5" fill="#0D9488"/><rect x="572" y="145" width="46" height="30" rx="5" ry="5" fill="#F8FAFC" stroke="#0D9488" stroke-width="1.1" opacity="1.0"/><text x="595" y="164" font-family="DejaVu Sans, Segoe UI, Apple SD Gothic Neo, Malgun Gothic, sans-serif" font-size="10.5" fill="#111827" font-weight="bold" text-anchor="middle">1</text><line x1="618" y1="160" x2="626.0" y2="160.0" stroke="#0D9488" stroke-width="1.3" stroke-linecap="round"/><polygon points="632.0,160.0 626.0,163.0 626.0,157.0" fill="#0D9488"/><circle cx="645" cy="160" r="13" fill="#FFFFFF" stroke="#0D9488" stroke-width="1.6"/><text x="645" y="163.74" font-family="DejaVu Sans, Segoe UI, Apple SD Gothic Neo, Malgun Gothic, sans-serif" font-size="11" fill="#0D9488" font-weight="bold" text-anchor="middle">σ</text><line x1="658" y1="160" x2="657.0" y2="160.0" stroke="#0D9488" stroke-width="1.3" stroke-linecap="round"/><polygon points="663.0,160.0 657.0,163.0 657.0,157.0" fill="#0D9488"/><rect x="664" y="146" width="74" height="28" rx="14" ry="14" fill="#0D9488" stroke="#0D9488" stroke-width="1.2" opacity="0.16"/><text x="701" y="164" font-family="DejaVu Sans, Segoe UI, Apple SD Gothic Neo, Malgun Gothic, sans-serif" font-size="13" fill="#0D9488" font-weight="bold" text-anchor="middle">p̂_win</text><line x1="738" y1="160" x2="812.5" y2="353.5" stroke="#0D9488" stroke-width="1.4" stroke-linecap="round"/><polygon points="815.0,360.0 809.2,354.7 815.8,352.2" fill="#0D9488"/><text x="410" y="229" font-family="DejaVu Sans, Segoe UI, Apple SD Gothic Neo, Malgun Gothic, sans-serif" font-size="10.2" fill="#4F46E5" font-weight="bold" text-anchor="start">CTR 타워  ·  비편향  P(click|win,x)</text><line x1="368" y1="248" x2="398.0" y2="249.6" stroke="#4F46E5" stroke-width="1.5" stroke-linecap="round"/><polygon points="406.0,250.0 397.8,253.6 398.2,245.6" fill="#4F46E5"/><rect x="410" y="235" width="46" height="30" rx="5" ry="5" fill="#E2E8F0" stroke="#94A3B8" stroke-width="1.1" opacity="1.0"/><text x="433" y="254" font-family="DejaVu Sans, Segoe UI, Apple SD Gothic Neo, Malgun Gothic, sans-serif" font-size="10.5" fill="#374151" font-weight="normal" text-anchor="middle">480</text><line x1="456" y1="250" x2="459.0" y2="250.0" stroke="#4F46E5" stroke-width="1.2" stroke-linecap="round"/><polygon points="464.0,250.0 459.0,252.5 459.0,247.5" fill="#4F46E5"/><rect x="464" y="235" width="46" height="30" rx="5" ry="5" fill="#F8FAFC" stroke="#4F46E5" stroke-width="1.1" opacity="1.0"/><text x="487" y="254" font-family="DejaVu Sans, Segoe UI, Apple SD Gothic Neo, Malgun Gothic, sans-serif" font-size="10.5" fill="#111827" font-weight="bold" text-anchor="middle">128</text><line x1="510" y1="250" x2="513.0" y2="250.0" stroke="#4F46E5" stroke-width="1.2" stroke-linecap="round"/><polygon points="518.0,250.0 513.0,252.5 513.0,247.5" fill="#4F46E5"/><rect x="518" y="235" width="46" height="30" rx="5" ry="5" fill="#F8FAFC" stroke="#4F46E5" stroke-width="1.1" opacity="1.0"/><text x="541" y="254" font-family="DejaVu Sans, Segoe UI, Apple SD Gothic Neo, Malgun Gothic, sans-serif" font-size="10.5" fill="#111827" font-weight="bold" text-anchor="middle">64</text><line x1="564" y1="250" x2="567.0" y2="250.0" stroke="#4F46E5" stroke-width="1.2" stroke-linecap="round"/><polygon points="572.0,250.0 567.0,252.5 567.0,247.5" fill="#4F46E5"/><rect x="572" y="235" width="46" height="30" rx="5" ry="5" fill="#F8FAFC" stroke="#4F46E5" stroke-width="1.1" opacity="1.0"/><text x="595" y="254" font-family="DejaVu Sans, Segoe UI, Apple SD Gothic Neo, Malgun Gothic, sans-serif" font-size="10.5" fill="#111827" font-weight="bold" text-anchor="middle">1</text><line x1="618" y1="250" x2="626.0" y2="250.0" stroke="#4F46E5" stroke-width="1.3" stroke-linecap="round"/><polygon points="632.0,250.0 626.0,253.0 626.0,247.0" fill="#4F46E5"/><circle cx="645" cy="250" r="13" fill="#FFFFFF" stroke="#4F46E5" stroke-width="1.6"/><text x="645" y="253.74" font-family="DejaVu Sans, Segoe UI, Apple SD Gothic Neo, Malgun Gothic, sans-serif" font-size="11" fill="#4F46E5" font-weight="bold" text-anchor="middle">σ</text><line x1="658" y1="250" x2="657.0" y2="250.0" stroke="#4F46E5" stroke-width="1.3" stroke-linecap="round"/><polygon points="663.0,250.0 657.0,253.0 657.0,247.0" fill="#4F46E5"/><rect x="664" y="236" width="74" height="28" rx="14" ry="14" fill="#4F46E5" stroke="#4F46E5" stroke-width="1.2" opacity="0.16"/><text x="701" y="254" font-family="DejaVu Sans, Segoe UI, Apple SD Gothic Neo, Malgun Gothic, sans-serif" font-size="13" fill="#4F46E5" font-weight="bold" text-anchor="middle">p̂_ctr</text><line x1="738" y1="250" x2="811.0" y2="354.3" stroke="#4F46E5" stroke-width="1.4" stroke-linecap="round"/><polygon points="815.0,360.0 808.1,356.3 813.9,352.3" fill="#4F46E5"/><text x="410" y="319" font-family="DejaVu Sans, Segoe UI, Apple SD Gothic Neo, Malgun Gothic, sans-serif" font-size="10.2" fill="#9333EA" font-weight="bold" text-anchor="start">Imputation 타워  ·  CTR 오차 제어변량(control variate)</text><line x1="368" y1="248" x2="402.9" y2="332.6" stroke="#9333EA" stroke-width="1.5" stroke-linecap="round"/><polygon points="406.0,340.0 399.2,334.1 406.6,331.1" fill="#9333EA"/><rect x="410" y="325" width="46" height="30" rx="5" ry="5" fill="#E2E8F0" stroke="#94A3B8" stroke-width="1.1" opacity="1.0"/><text x="433" y="344" font-family="DejaVu Sans, Segoe UI, Apple SD Gothic Neo, Malgun Gothic, sans-serif" font-size="10.5" fill="#374151" font-weight="normal" text-anchor="middle">480</text><line x1="456" y1="340" x2="459.0" y2="340.0" stroke="#9333EA" stroke-width="1.2" stroke-linecap="round"/><polygon points="464.0,340.0 459.0,342.5 459.0,337.5" fill="#9333EA"/><rect x="464" y="325" width="46" height="30" rx="5" ry="5" fill="#F8FAFC" stroke="#9333EA" stroke-width="1.1" opacity="1.0"/><text x="487" y="344" font-family="DejaVu Sans, Segoe UI, Apple SD Gothic Neo, Malgun Gothic, sans-serif" font-size="10.5" fill="#111827" font-weight="bold" text-anchor="middle">128</text><line x1="510" y1="340" x2="513.0" y2="340.0" stroke="#9333EA" stroke-width="1.2" stroke-linecap="round"/><polygon points="518.0,340.0 513.0,342.5 513.0,337.5" fill="#9333EA"/><rect x="518" y="325" width="46" height="30" rx="5" ry="5" fill="#F8FAFC" stroke="#9333EA" stroke-width="1.1" opacity="1.0"/><text x="541" y="344" font-family="DejaVu Sans, Segoe UI, Apple SD Gothic Neo, Malgun Gothic, sans-serif" font-size="10.5" fill="#111827" font-weight="bold" text-anchor="middle">64</text><line x1="564" y1="340" x2="567.0" y2="340.0" stroke="#9333EA" stroke-width="1.2" stroke-linecap="round"/><polygon points="572.0,340.0 567.0,342.5 567.0,337.5" fill="#9333EA"/><rect x="572" y="325" width="46" height="30" rx="5" ry="5" fill="#F8FAFC" stroke="#9333EA" stroke-width="1.1" opacity="1.0"/><text x="595" y="344" font-family="DejaVu Sans, Segoe UI, Apple SD Gothic Neo, Malgun Gothic, sans-serif" font-size="10.5" fill="#111827" font-weight="bold" text-anchor="middle">1</text><line x1="618" y1="340" x2="626.0" y2="340.0" stroke="#9333EA" stroke-width="1.3" stroke-linecap="round"/><polygon points="632.0,340.0 626.0,343.0 626.0,337.0" fill="#9333EA"/><circle cx="645" cy="340" r="13" fill="#FFFFFF" stroke="#9333EA" stroke-width="1.6"/><text x="645" y="343.74" font-family="DejaVu Sans, Segoe UI, Apple SD Gothic Neo, Malgun Gothic, sans-serif" font-size="11" fill="#9333EA" font-weight="bold" text-anchor="middle">lin</text><line x1="658" y1="340" x2="657.0" y2="340.0" stroke="#9333EA" stroke-width="1.3" stroke-linecap="round"/><polygon points="663.0,340.0 657.0,343.0 657.0,337.0" fill="#9333EA"/><rect x="664" y="326" width="74" height="28" rx="14" ry="14" fill="#9333EA" stroke="#9333EA" stroke-width="1.2" opacity="0.16"/><text x="701" y="344" font-family="DejaVu Sans, Segoe UI, Apple SD Gothic Neo, Malgun Gothic, sans-serif" font-size="13" fill="#9333EA" font-weight="bold" text-anchor="middle">δ̂</text><line x1="738" y1="340" x2="808.2" y2="358.2" stroke="#9333EA" stroke-width="1.4" stroke-linecap="round"/><polygon points="815.0,360.0 807.3,361.6 809.1,354.9" fill="#9333EA"/><rect x="863" y="124" width="288" height="116" rx="10" ry="10" fill="#0F172A" stroke="none" stroke-width="0" opacity="0.1"/><rect x="860" y="120" width="288" height="116" rx="10" ry="10" fill="#FFF7ED" stroke="#D97706" stroke-width="1.5" opacity="1.0"/><text x="1004.0" y="142" font-family="DejaVu Sans, Segoe UI, Apple SD Gothic Neo, Malgun Gothic, sans-serif" font-size="12" fill="#D97706" font-weight="bold" text-anchor="middle">Win 타워 이중 활용</text><text x="874" y="164" font-family="DejaVu Sans, Segoe UI, Apple SD Gothic Neo, Malgun Gothic, sans-serif" font-size="9.6" fill="#374151" font-weight="normal" text-anchor="start">(a) 학습 — DR 성향점수 ŵ = win / P̂(win)</text><text x="874" y="178" font-family="DejaVu Sans, Segoe UI, Apple SD Gothic Neo, Malgun Gothic, sans-serif" font-size="9.6" fill="#374151" font-weight="normal" text-anchor="start">      가 CTR 손실을 디바이어싱</text><text x="874" y="202" font-family="DejaVu Sans, Segoe UI, Apple SD Gothic Neo, Malgun Gothic, sans-serif" font-size="9.6" fill="#374151" font-weight="normal" text-anchor="start">(b) 서빙 — 1차가격 비드 셰이딩용</text><text x="874" y="216" font-family="DejaVu Sans, Segoe UI, Apple SD Gothic Neo, Malgun Gothic, sans-serif" font-size="9.6" fill="#374151" font-weight="normal" text-anchor="start">      낙찰률 모델 (AUC ≈ 0.91)</text><line x1="740" y1="160" x2="849.1" y2="149.1" stroke="#D97706" stroke-width="1.5" stroke-linecap="round" stroke-dasharray="4,3"/><polygon points="860.0,148.0 849.6,154.6 848.5,143.6" fill="#D97706"/><text x="828" y="352" font-family="DejaVu Sans, Segoe UI, Apple SD Gothic Neo, Malgun Gothic, sans-serif" font-size="9" fill="#374151" font-weight="normal" text-anchor="start">모델 출력  p̂_win, p̂_ctr, δ̂</text><line x1="815" y1="360" x2="815.0" y2="375.0" stroke="#111827" stroke-width="2.2" stroke-linecap="round"/><polygon points="815.0,386.0 809.5,375.0 820.5,375.0" fill="#111827"/><rect x="253" y="392" width="900" height="214" rx="10" ry="10" fill="#0F172A" stroke="none" stroke-width="0" opacity="0.1"/><rect x="250" y="388" width="900" height="214" rx="10" ry="10" fill="#FFFFFF" stroke="#111827" stroke-width="1.5" opacity="1.0"/><text x="700.0" y="410" font-family="DejaVu Sans, Segoe UI, Apple SD Gothic Neo, Malgun Gothic, sans-serif" font-size="12.5" fill="#111827" font-weight="bold" text-anchor="middle">학습 목적함수 — 이중 강건 클릭 손실 + ESMM 전체공간 제약</text><rect x="262" y="426" width="296" height="46" rx="8" ry="8" fill="#F8FAFC" stroke="#CBD5E1" stroke-width="1.1" opacity="1.0"/><text x="272" y="443" font-family="DejaVu Sans, Segoe UI, Apple SD Gothic Neo, Malgun Gothic, sans-serif" font-size="9" fill="#374151" font-weight="bold" text-anchor="start">성향 가중치</text><text x="410.0" y="460" font-family="DejaVu Sans, Segoe UI, Apple SD Gothic Neo, Malgun Gothic, sans-serif" font-size="10" fill="#111827" font-weight="normal" text-anchor="middle">ŵ = clip( win / clip(p̂_win, 0.05, 1), 0, 10 )</text><text x="410.0" y="468" font-family="DejaVu Sans, Segoe UI, Apple SD Gothic Neo, Malgun Gothic, sans-serif" font-size="7.8" fill="#374151" font-weight="normal" text-anchor="middle">자기정규화 · p̂_win stop-grad</text><rect x="566" y="426" width="296" height="46" rx="8" ry="8" fill="#F8FAFC" stroke="#CBD5E1" stroke-width="1.1" opacity="1.0"/><text x="576" y="443" font-family="DejaVu Sans, Segoe UI, Apple SD Gothic Neo, Malgun Gothic, sans-serif" font-size="9" fill="#374151" font-weight="bold" text-anchor="start">이중 강건 잔차</text><text x="714.0" y="460" font-family="DejaVu Sans, Segoe UI, Apple SD Gothic Neo, Malgun Gothic, sans-serif" font-size="10" fill="#111827" font-weight="normal" text-anchor="middle">Δ_DR = δ̂ + ŵ·(y − p̂_ctr − δ̂)</text><text x="714.0" y="468" font-family="DejaVu Sans, Segoe UI, Apple SD Gothic Neo, Malgun Gothic, sans-serif" font-size="7.8" fill="#374151" font-weight="normal" text-anchor="middle">성향 또는 대체 모델 중 하나만 맞아도 비편향</text><rect x="870" y="426" width="264" height="46" rx="8" ry="8" fill="#F8FAFC" stroke="#CBD5E1" stroke-width="1.1" opacity="1.0"/><text x="880" y="443" font-family="DejaVu Sans, Segoe UI, Apple SD Gothic Neo, Malgun Gothic, sans-serif" font-size="9" fill="#374151" font-weight="bold" text-anchor="start">ESMM 제약</text><text x="1002.0" y="460" font-family="DejaVu Sans, Segoe UI, Apple SD Gothic Neo, Malgun Gothic, sans-serif" font-size="10" fill="#111827" font-weight="normal" text-anchor="middle">p̂_bid = p̂_win × p̂_ctr</text><text x="1002.0" y="468" font-family="DejaVu Sans, Segoe UI, Apple SD Gothic Neo, Malgun Gothic, sans-serif" font-size="7.8" fill="#374151" font-weight="normal" text-anchor="middle">전체공간(entire-space)</text><rect x="262" y="488" width="162" height="56" rx="10" ry="10" fill="#FFFFFF" stroke="#6B7280" stroke-width="1.3" opacity="1.0"/><text x="343.0" y="508" font-family="DejaVu Sans, Segoe UI, Apple SD Gothic Neo, Malgun Gothic, sans-serif" font-size="12" fill="#6B7280" font-weight="bold" text-anchor="middle">ℒ_win</text><text x="343.0" y="524" font-family="DejaVu Sans, Segoe UI, Apple SD Gothic Neo, Malgun Gothic, sans-serif" font-size="8.6" fill="#111827" font-weight="normal" text-anchor="middle">BCE(p̂_win, win)</text><rect x="311.0" y="530" width="64" height="13" rx="6" ry="6" fill="#6B7280" stroke="none" stroke-width="0" opacity="0.16"/><text x="343.0" y="539" font-family="DejaVu Sans, Segoe UI, Apple SD Gothic Neo, Malgun Gothic, sans-serif" font-size="7.6" fill="#6B7280" font-weight="bold" text-anchor="middle">전체 입찰</text><rect x="432" y="488" width="162" height="56" rx="10" ry="10" fill="#FFFFFF" stroke="#6B7280" stroke-width="1.3" opacity="1.0"/><text x="513.0" y="508" font-family="DejaVu Sans, Segoe UI, Apple SD Gothic Neo, Malgun Gothic, sans-serif" font-size="12" fill="#6B7280" font-weight="bold" text-anchor="middle">ℒ_ctr</text><text x="513.0" y="524" font-family="DejaVu Sans, Segoe UI, Apple SD Gothic Neo, Malgun Gothic, sans-serif" font-size="8.6" fill="#111827" font-weight="normal" text-anchor="middle">MSE(Δ_DR)  · DR</text><rect x="481.0" y="530" width="64" height="13" rx="6" ry="6" fill="#6B7280" stroke="none" stroke-width="0" opacity="0.16"/><text x="513.0" y="539" font-family="DejaVu Sans, Segoe UI, Apple SD Gothic Neo, Malgun Gothic, sans-serif" font-size="7.6" fill="#6B7280" font-weight="bold" text-anchor="middle">전체 입찰</text><rect x="602" y="488" width="162" height="56" rx="10" ry="10" fill="#FFFFFF" stroke="#0D9488" stroke-width="1.3" opacity="1.0"/><text x="683.0" y="508" font-family="DejaVu Sans, Segoe UI, Apple SD Gothic Neo, Malgun Gothic, sans-serif" font-size="12" fill="#0D9488" font-weight="bold" text-anchor="middle">ℒ_imp</text><text x="683.0" y="524" font-family="DejaVu Sans, Segoe UI, Apple SD Gothic Neo, Malgun Gothic, sans-serif" font-size="8.6" fill="#111827" font-weight="normal" text-anchor="middle">MSE(δ̂, y−p̂_ctr)</text><rect x="651.0" y="530" width="64" height="13" rx="6" ry="6" fill="#0D9488" stroke="none" stroke-width="0" opacity="0.16"/><text x="683.0" y="539" font-family="DejaVu Sans, Segoe UI, Apple SD Gothic Neo, Malgun Gothic, sans-serif" font-size="7.6" fill="#0D9488" font-weight="bold" text-anchor="middle">낙찰만</text><rect x="772" y="488" width="162" height="56" rx="10" ry="10" fill="#FFFFFF" stroke="#6B7280" stroke-width="1.3" opacity="1.0"/><text x="853.0" y="508" font-family="DejaVu Sans, Segoe UI, Apple SD Gothic Neo, Malgun Gothic, sans-serif" font-size="12" fill="#6B7280" font-weight="bold" text-anchor="middle">ℒ_joint</text><text x="853.0" y="524" font-family="DejaVu Sans, Segoe UI, Apple SD Gothic Neo, Malgun Gothic, sans-serif" font-size="8.6" fill="#111827" font-weight="normal" text-anchor="middle">BCE(p̂_bid, click)</text><rect x="821.0" y="530" width="64" height="13" rx="6" ry="6" fill="#6B7280" stroke="none" stroke-width="0" opacity="0.16"/><text x="853.0" y="539" font-family="DejaVu Sans, Segoe UI, Apple SD Gothic Neo, Malgun Gothic, sans-serif" font-size="7.6" fill="#6B7280" font-weight="bold" text-anchor="middle">전체 입찰</text><rect x="942" y="488" width="162" height="56" rx="10" ry="10" fill="#FFFFFF" stroke="#D97706" stroke-width="1.3" opacity="1.0"/><text x="1023.0" y="508" font-family="DejaVu Sans, Segoe UI, Apple SD Gothic Neo, Malgun Gothic, sans-serif" font-size="12" fill="#D97706" font-weight="bold" text-anchor="middle">ℒ_cfr</text><text x="1023.0" y="524" font-family="DejaVu Sans, Segoe UI, Apple SD Gothic Neo, Malgun Gothic, sans-serif" font-size="8.6" fill="#111827" font-weight="normal" text-anchor="middle">⟨(1−win)·δ̂²⟩</text><rect x="991.0" y="530" width="64" height="13" rx="6" ry="6" fill="#D97706" stroke="none" stroke-width="0" opacity="0.16"/><text x="1023.0" y="539" font-family="DejaVu Sans, Segoe UI, Apple SD Gothic Neo, Malgun Gothic, sans-serif" font-size="7.6" fill="#D97706" font-weight="bold" text-anchor="middle">패찰만</text><text x="700.0" y="590" font-family="DejaVu Sans, Segoe UI, Apple SD Gothic Neo, Malgun Gothic, sans-serif" font-size="12" fill="#111827" font-weight="bold" text-anchor="middle">ℒ = ℒ_win + ( ℒ_ctr + 0.5·ℒ_imp ) + ℒ_joint + 0.1·ℒ_cfr</text><text x="40" y="640" font-family="DejaVu Sans, Segoe UI, Apple SD Gothic Neo, Malgun Gothic, sans-serif" font-size="9.5" fill="#111827" font-weight="bold" text-anchor="start">표본 영역:</text><rect x="150" y="631" width="12" height="12" rx="3" ry="3" fill="#6B7280" stroke="none" stroke-width="0" opacity="0.55"/><text x="168" y="640" font-family="DejaVu Sans, Segoe UI, Apple SD Gothic Neo, Malgun Gothic, sans-serif" font-size="9.2" fill="#374151" font-weight="normal" text-anchor="start">전체 입찰</text><rect x="300" y="631" width="12" height="12" rx="3" ry="3" fill="#0D9488" stroke="none" stroke-width="0" opacity="0.55"/><text x="318" y="640" font-family="DejaVu Sans, Segoe UI, Apple SD Gothic Neo, Malgun Gothic, sans-serif" font-size="9.2" fill="#374151" font-weight="normal" text-anchor="start">낙찰만</text><rect x="450" y="631" width="12" height="12" rx="3" ry="3" fill="#D97706" stroke="none" stroke-width="0" opacity="0.55"/><text x="468" y="640" font-family="DejaVu Sans, Segoe UI, Apple SD Gothic Neo, Malgun Gothic, sans-serif" font-size="9.2" fill="#374151" font-weight="normal" text-anchor="start">패찰만</text><text x="640" y="640" font-family="DejaVu Sans, Segoe UI, Apple SD Gothic Neo, Malgun Gothic, sans-serif" font-size="9.2" fill="#374151" font-weight="normal" text-anchor="start">순전파</text><line x1="600" y1="636" x2="636" y2="636" stroke="#111827" stroke-width="2"/><text x="870" y="640" font-family="DejaVu Sans, Segoe UI, Apple SD Gothic Neo, Malgun Gothic, sans-serif" font-size="9.2" fill="#374151" font-weight="normal" text-anchor="start">stop-grad / 가중치 입력</text><line x1="830" y1="636" x2="866" y2="636" stroke="#D97706" stroke-width="2" stroke-dasharray="4,3"/></svg>